<svg xmlns:dc="http://purl.org/dc/elements/1.1/" xmlns:cc="http://creativecommons.org/ns#" xmlns:rdf="http://www.w3.org/1999/02/22-rdf-syntax-ns#" xmlns:svg="http://www.w3.org/2000/svg" xmlns="http://www.w3.org/2000/svg" xmlns:sodipodi="http://sodipodi.sourceforge.net/DTD/sodipodi-0.dtd" xmlns:inkscape="http://www.inkscape.org/namespaces/inkscape" version="1.1" x="0px" y="0px" viewBox="0 0 100 125"><g transform="translate(0,-952.36218)"><path style="font-size:medium;font-style:normal;font-variant:normal;font-weight:normal;font-stretch:normal;text-indent:0;text-align:start;text-decoration:none;line-height:normal;letter-spacing:normal;word-spacing:normal;text-transform:none;direction:ltr;block-progression:tb;writing-mode:lr-tb;text-anchor:start;baseline-shift:baseline;opacity:1;color:#000000;fill:#000000;fill-opacity:1;stroke:none;stroke-width:2;marker:none;visibility:visible;display:inline;overflow:visible;enable-background:accumulate;font-family:Sans;-inkscape-font-specification:Sans" d="M 26 7 C 23.247299 7 21 9.2473 21 12 L 21 15 L 8 15 A 1.0001 1.0001 0 0 0 7.8125 15 A 1.0001 1.0001 0 0 0 7 16 L 7 72 A 1.0001 1.0001 0 0 0 8 73 L 29 73 L 29 76 A 1.0001 1.0001 0 0 0 30 77 L 33.40625 77 C 33.959631 78.136 34.328682 78.98065 34.78125 79.78125 L 32.28125 82.28125 A 1.0001 1.0001 0 0 0 32.21875 83.625 L 37.21875 89.625 A 1.0001 1.0001 0 0 0 38.71875 89.6875 L 42.15625 86.25 C 43.011521 86.7821 43.933136 87.27335 45 87.65625 L 45 92 A 1.0001 1.0001 0 0 0 46 93 L 50 93 L 54 93 A 1.0001 1.0001 0 0 0 55 92 L 55 87.65625 C 56.066864 87.27335 56.988479 86.7821 57.84375 86.25 L 61.28125 89.6875 A 1.0001 1.0001 0 0 0 62.78125 89.625 L 67.78125 83.625 A 1.0001 1.0001 0 0 0 67.71875 82.28125 L 65.21875 79.78125 C 65.671318 78.98065 66.040368 78.136 66.59375 77 L 70 77 A 1.0001 1.0001 0 0 0 71 76 L 71 73 L 92 73 A 1.0001 1.0001 0 0 0 93 72 L 93 16 A 1.0001 1.0001 0 0 0 92 15 L 79 15 L 79 12 C 79 9.2473 76.752701 7 74 7 L 72 7 C 69.247299 7 67 9.2473 67 12 L 67 15 L 33 15 L 33 12 C 33 9.2473 30.752701 7 28 7 L 26 7 z M 26 9 L 28 9 C 29.679296 9 31 10.3207 31 12 L 31 20 C 31 21.6793 29.679296 23 28 23 L 26 23 C 24.320704 23 23 21.6793 23 20 L 23 12 C 23 10.3207 24.320704 9 26 9 z M 72 9 L 74 9 C 75.679296 9 77 10.3207 77 12 L 77 20 C 77 21.6793 75.679296 23 74 23 L 72 23 C 70.320704 23 69 21.6793 69 20 L 69 12 C 69 10.3207 70.320704 9 72 9 z M 9 17 L 21 17 L 21 20 C 21 22.7527 23.247299 25 26 25 L 28 25 C 30.752701 25 33 22.7527 33 20 L 33 17 L 67 17 L 67 20 C 67 22.7527 69.247299 25 72 25 L 74 25 C 76.752701 25 79 22.7527 79 20 L 79 17 L 91 17 L 91 31 L 9 31 L 9 17 z M 9 33 L 91 33 L 91 71 L 71 71 L 71 68 A 1.0001 1.0001 0 0 0 70.0625 67 L 80 67 A 1.0001 1.0001 0 0 0 81 66 L 81 56 A 1.0001 1.0001 0 0 0 80.1875 55 A 1.0001 1.0001 0 0 0 80 55 L 70 55 A 1.0001 1.0001 0 0 0 69 56 L 69 66 A 1.0001 1.0001 0 0 0 69.8125 67 L 66.625 67 C 66.064158 65.8514 65.675321 64.9942 65.21875 64.1875 L 67.71875 61.6875 A 1.0001 1.0001 0 0 0 67.78125 60.34375 L 62.78125 54.34375 A 1.0001 1.0001 0 0 0 61.28125 54.28125 L 57.84375 57.71875 C 56.986505 57.18535 56.070225 56.6956 55 56.3125 L 55 52 A 1.0001 1.0001 0 0 0 54 51 L 50 51 L 46 51 A 1.0001 1.0001 0 0 0 45.8125 51 A 1.0001 1.0001 0 0 0 45 52 L 45 56.3125 C 43.929775 56.6956 43.013494 57.18535 42.15625 57.71875 L 38.71875 54.28125 A 1.0001 1.0001 0 0 0 37.21875 54.34375 L 32.21875 60.34375 A 1.0001 1.0001 0 0 0 32.28125 61.6875 L 34.78125 64.1875 C 34.324678 64.9942 33.935841 65.8514 33.375 67 L 30.1875 67 A 1.0001 1.0001 0 0 0 31 66 L 31 56 A 1.0001 1.0001 0 0 0 30 55 L 20 55 A 1.0001 1.0001 0 0 0 19.8125 55 A 1.0001 1.0001 0 0 0 19 56 L 19 66 A 1.0001 1.0001 0 0 0 20 67 L 30 67 A 1.0001 1.0001 0 0 0 29 68 L 29 71 L 9 71 L 9 33 z M 19.8125 38 A 1.0001 1.0001 0 0 0 19 39 L 19 49 A 1.0001 1.0001 0 0 0 20 50 L 30 50 A 1.0001 1.0001 0 0 0 31 49 L 31 39 A 1.0001 1.0001 0 0 0 30 38 L 20 38 A 1.0001 1.0001 0 0 0 19.8125 38 z M 44.9375 38 A 1.0001 1.0001 0 0 0 44 39 L 44 49 A 1.0001 1.0001 0 0 0 45 50 L 55 50 A 1.0001 1.0001 0 0 0 56 49 L 56 39 A 1.0001 1.0001 0 0 0 55.1875 38 A 1.0001 1.0001 0 0 0 55 38 L 45 38 A 1.0001 1.0001 0 0 0 44.9375 38 z M 69.9375 38 A 1.0001 1.0001 0 0 0 69 39 L 69 49 A 1.0001 1.0001 0 0 0 70 50 L 80 50 A 1.0001 1.0001 0 0 0 81 49 L 81 39 A 1.0001 1.0001 0 0 0 80.1875 38 A 1.0001 1.0001 0 0 0 80 38 L 70 38 A 1.0001 1.0001 0 0 0 69.9375 38 z M 21 40 L 29 40 L 29 48 L 21 48 L 21 40 z M 46 40 L 54 40 L 54 48 L 46 48 L 46 40 z M 71 40 L 79 40 L 79 48 L 71 48 L 71 40 z M 47 53 L 50 53 L 53 53 L 53 57 A 1.0001 1.0001 0 0 0 53.75 57.96875 C 55.060314 58.29485 56.14428 59.02855 57.5 59.84375 A 1.0001 1.0001 0 0 0 58.71875 59.6875 L 61.9375 56.46875 L 65.625 60.9375 L 63.28125 63.28125 A 1.0001 1.0001 0 0 0 63.1875 64.5625 C 63.852293 65.5027 64.035057 66.41275 65.125 68.46875 A 1.0001 1.0001 0 0 0 66 69 L 69 69 L 69 72 L 69 75 L 66 75 A 1.0001 1.0001 0 0 0 65.125 75.53125 C 64.03505 77.58725 63.852253 78.46625 63.1875 79.40625 A 1.0001 1.0001 0 0 0 63.28125 80.6875 L 65.625 83.03125 L 61.9375 87.5 L 58.71875 84.28125 A 1.0001 1.0001 0 0 0 57.5 84.125 C 56.144345 84.9402 55.060354 85.70505 53.75 86.03125 A 1.0001 1.0001 0 0 0 53 87 L 53 91 L 50 91 L 47 91 L 47 87 A 1.0001 1.0001 0 0 0 46.25 86.03125 C 44.939646 85.70505 43.855654 84.9402 42.5 84.125 A 1.0001 1.0001 0 0 0 41.28125 84.28125 L 38.0625 87.5 L 34.375 83.03125 L 36.71875 80.6875 A 1.0001 1.0001 0 0 0 36.8125 79.40625 C 36.147747 78.46625 35.964949 77.58725 34.875 75.53125 A 1.0001 1.0001 0 0 0 34 75 L 31 75 L 31 72 L 31 69 L 34 69 A 1.0001 1.0001 0 0 0 34.875 68.46875 C 35.964942 66.41275 36.147706 65.5027 36.8125 64.5625 A 1.0001 1.0001 0 0 0 36.71875 63.28125 L 34.375 60.9375 L 38.0625 56.46875 L 41.28125 59.6875 A 1.0001 1.0001 0 0 0 42.5 59.84375 C 43.855718 59.02855 44.939685 58.29485 46.25 57.96875 A 1.0001 1.0001 0 0 0 47 57 L 47 53 z M 21 57 L 29 57 L 29 65 L 21 65 L 21 57 z M 71 57 L 79 57 L 79 65 L 71 65 L 71 57 z M 50 63 C 45.041282 63 41 67.0413 41 72 C 41 76.9588 45.041282 81 50 81 C 54.958718 81 59 76.9588 59 72 C 59 67.0413 54.958718 63 50 63 z M 50 65 C 53.877838 65 57 68.1222 57 72 C 57 75.8779 53.877838 79 50 79 C 46.122162 79 43 75.8779 43 72 C 43 68.1222 46.122162 65 50 65 z " transform="translate(0,952.36218)"/></g><text x="0" y="115" fill="#000000" font-size="5px" font-weight="bold" font-family="'Helvetica Neue', Helvetica, Arial-Unicode, Arial, Sans-serif">Created by Jasfart</text><text x="0" y="120" fill="#000000" font-size="5px" font-weight="bold" font-family="'Helvetica Neue', Helvetica, Arial-Unicode, Arial, Sans-serif">from the Noun Project</text></svg>